<svg width="23" height="20" viewBox="0 0 23 20" fill="none" xmlns="http://www.w3.org/2000/svg">
<path d="M18.2084 3.32721H4.79169C4.02919 3.32721 3.29792 3.59012 2.75876 4.0581C2.21959 4.52608 1.91669 5.1608 1.91669 5.82263V14.1407C1.91669 14.8025 2.21959 15.4372 2.75876 15.9052C3.29792 16.3732 4.02919 16.6361 4.79169 16.6361H18.2084C18.9709 16.6361 19.7021 16.3732 20.2413 15.9052C20.7805 15.4372 21.0834 14.8025 21.0834 14.1407V5.82263C21.0834 5.1608 20.7805 4.52608 20.2413 4.0581C19.7021 3.59012 18.9709 3.32721 18.2084 3.32721V3.32721ZM17.8154 4.99082L12.1804 9.88183C12.0913 9.9598 11.9854 10.0217 11.8686 10.0639C11.7518 10.1061 11.6265 10.1279 11.5 10.1279C11.3735 10.1279 11.2482 10.1061 11.1315 10.0639C11.0147 10.0217 10.9087 9.9598 10.8196 9.88183L5.1846 4.99082H17.8154ZM19.1667 14.1407C19.1667 14.3613 19.0657 14.5729 18.886 14.7289C18.7063 14.8848 18.4625 14.9725 18.2084 14.9725H4.79169C4.53752 14.9725 4.29377 14.8848 4.11404 14.7289C3.93432 14.5729 3.83335 14.3613 3.83335 14.1407V6.16367L9.46835 11.0547C10.0074 11.522 10.7381 11.7845 11.5 11.7845C12.2619 11.7845 12.9926 11.522 13.5317 11.0547L19.1667 6.16367V14.1407Z" fill="#F2F2F2"/>
</svg>
