<svg width="45" height="45" viewBox="0 0 45 45" fill="none" xmlns="http://www.w3.org/2000/svg">
<path d="M0 22.5C0 10.0736 10.0736 0 22.5 0C34.9264 0 45 10.0736 45 22.5C45 34.9264 34.9264 45 22.5 45C10.0736 45 0 34.9264 0 22.5Z" fill="#5101FF"/>
<path d="M20.3883 20.1098V19.2339C20.0883 19.1938 19.7832 19.1687 19.4681 19.1687C15.7121 19.1638 12.6562 22.2221 12.6562 25.9863C12.6562 28.2939 13.8066 30.3362 15.567 31.5725C14.4317 30.3562 13.7365 28.7193 13.7365 26.9274C13.7365 23.2182 16.7073 20.1949 20.3883 20.1098Z" fill="#25F4EE"/>
<path d="M20.5534 30.0409C22.2288 30.0409 23.5992 28.7044 23.6593 27.0426L23.6643 12.191H26.375C26.3199 11.8857 26.2899 11.5704 26.2899 11.25H22.5889L22.5839 26.1015C22.5239 27.7634 21.1535 29.0998 19.4781 29.0998C18.958 29.0998 18.4678 28.9697 18.0327 28.7394C18.5929 29.5253 19.5131 30.0409 20.5534 30.0409Z" fill="#25F4EE"/>
<path d="M31.4415 17.2317V16.4058C30.4063 16.4058 29.446 16.1004 28.6357 15.5698C29.3559 16.3958 30.3312 16.9965 31.4415 17.2317Z" fill="#25F4EE"/>
<path d="M28.6357 15.5699C27.8454 14.6639 27.3703 13.4826 27.3703 12.1912H26.3801C26.6351 13.6027 27.4754 14.8141 28.6357 15.5699Z" fill="#FE2C55"/>
<path d="M19.4731 22.8678C17.7577 22.8678 16.3623 24.2644 16.3623 25.9813C16.3623 27.1777 17.0425 28.2188 18.0327 28.7394C17.6627 28.2288 17.4426 27.6031 17.4426 26.9223C17.4426 25.2054 18.838 23.8089 20.5535 23.8089C20.8735 23.8089 21.1836 23.8639 21.4737 23.954V20.1699C21.1736 20.1298 20.8685 20.1047 20.5535 20.1047C20.4984 20.1047 20.4484 20.1097 20.3934 20.1097V23.013C20.0983 22.9229 19.7932 22.8678 19.4731 22.8678Z" fill="#FE2C55"/>
<path d="M31.4412 17.2317V20.1099C29.5207 20.1099 27.7402 19.4942 26.2897 18.453V25.9864C26.2897 29.7456 23.234 32.809 19.4729 32.809C18.0226 32.809 16.6722 32.3485 15.5669 31.5727C16.8122 32.9091 18.5877 33.7501 20.5533 33.7501C24.3092 33.7501 27.3701 30.6917 27.3701 26.9275V19.3941C28.8204 20.4353 30.6009 21.0509 32.5215 21.0509V17.3469C32.1463 17.3469 31.7862 17.3068 31.4412 17.2317Z" fill="#FE2C55"/>
<path d="M26.2899 25.9865V18.4531C27.7404 19.4943 29.5208 20.1099 31.4414 20.1099V17.2317C30.331 16.9965 29.3558 16.3958 28.6356 15.5699C27.4752 14.8141 26.6401 13.6027 26.3749 12.1912H23.6642L23.6592 27.0426C23.5993 28.7045 22.2288 30.041 20.5534 30.041C19.5131 30.041 18.5979 29.5254 18.0277 28.7445C17.0375 28.2189 16.3573 27.1828 16.3573 25.9865C16.3573 24.2696 17.7526 22.873 19.4681 22.873C19.7882 22.873 20.0983 22.928 20.3884 23.0182V20.1149C16.7074 20.195 13.7366 23.2184 13.7366 26.9275C13.7366 28.7195 14.4318 30.3513 15.5671 31.5727C16.6724 32.3485 18.0227 32.8091 19.4731 32.8091C23.2291 32.8091 26.2899 29.7456 26.2899 25.9865Z" fill="#F2F2F2"/>
</svg>
