<svg width="40" height="40" viewBox="0 0 40 40" fill="none" xmlns="http://www.w3.org/2000/svg">
<path d="M33.134 18.178H6.52778C5.66073 18.178 4.95785 18.8809 4.95785 19.748V19.9132C4.95785 20.7803 5.66073 21.4831 6.52778 21.4831H33.134C34.0011 21.4831 34.704 20.7803 34.704 19.9132V19.748C34.704 18.8809 34.0011 18.178 33.134 18.178Z" fill="#F2F2F2"/>
<path d="M33.134 26.4408H6.52778C5.66073 26.4408 4.95785 27.1437 4.95785 28.0108V28.176C4.95785 29.0431 5.66073 29.7459 6.52778 29.7459H33.134C34.0011 29.7459 34.704 29.0431 34.704 28.176V28.0108C34.704 27.1437 34.0011 26.4408 33.134 26.4408Z" fill="#F2F2F2"/>
<path d="M33.1339 9.91537H6.52762C5.66057 9.91537 4.95768 10.6183 4.95768 11.4853V11.6506C4.95768 12.5176 5.66057 13.2205 6.52762 13.2205H33.1339C34.0009 13.2205 34.7038 12.5176 34.7038 11.6506V11.4853C34.7038 10.6183 34.0009 9.91537 33.1339 9.91537Z" fill="#F2F2F2"/>
</svg>
